<svg width="1229" height="405" viewBox="0 0 1229 405" xmlns="http://www.w3.org/2000/svg">
<defs id="defs1">
<style id="style1">
svg {
    color: black;
    color-scheme: light dark;
}
@media (prefers-color-scheme: dark) {
    svg {
        color: white;
    }
}
</style>
</defs>
<path
    style="fill:currentColor;fill-opacity:1;stroke:none;stroke-width:1.57229;stroke-linecap:square;paint-order:stroke markers fill"
    d="M376.972 365.694V382H221.276V365.694C246.524 365.694 259.148 361.135 259.148 352.018C259.148 346.758 257.394 341.147 253.888 335.186L164.994 183.698L97.1398 261.02V365.694H146.058V382H0.355805V365.694H49.2738V35.892H0.355805V19.586H147.11V35.892H98.1918V230.512L239.686 73.764C246.348 67.1013 249.68 61.14 249.68 55.88C249.68 50.62 248.102 45.886 244.946 41.678C242.14 37.47 231.094 35.5413 211.808 35.892V19.586H343.308V35.892C320.514 35.892 304.559 38.8726 295.442 44.834C286.675 50.7953 273.174 64.1207 254.94 84.81L202.34 143.722L313.326 336.238C313.676 337.29 314.553 339.043 315.956 341.498L319.112 347.284C324.372 356.051 329.982 361.486 335.944 363.59C339.1 364.993 352.776 365.694 376.972 365.694ZM609.143 404.092C601.779 358.856 569.167 302.574 508.151 256.286C477.643 233.142 447.661 218.414 418.731 212.628V190.536C477.117 177.386 534.977 136.358 572.849 82.706C591.785 55.88 603.883 28.528 609.143 0.123994H631.235C640.177 53.776 682.257 112.162 737.487 151.612C764.839 171.074 793.243 184.224 822.699 190.536V212.628C763.261 224.726 695.407 276.274 662.269 329.4C645.437 356.226 634.917 380.948 631.235 404.092H609.143ZM616.507 391.468H623.871C629.131 336.764 645.437 277.326 663.847 246.292C699.089 226.304 762.735 209.472 809.023 206.316V198.952C762.735 195.27 696.459 177.386 663.847 157.924C645.437 126.364 629.131 68.504 623.871 13.8H616.507C612.299 63.244 596.519 122.682 576.531 157.924C542.867 177.386 479.747 195.27 431.355 198.952V206.316C479.221 209.998 540.763 226.304 576.531 246.292C595.993 280.482 612.299 340.972 616.507 391.468ZM1228.31 366.22V382.526H1092.07V366.22H1133.63L1037.89 89.018L983.191 216.31C955.839 283.287 942.163 327.471 942.163 348.862L944.267 360.96C955.839 364.467 967.06 366.22 977.931 366.22V382.526H863.263V366.22H871.679C888.862 366.571 901.836 361.486 910.603 350.966C916.214 345.005 922.876 331.329 930.591 309.938L1044.21 10.118H1065.25L1188.86 366.22H1228.31Z"
/>
</svg>
